<svg t="1769781544864" class="icon" viewBox="0 0 1024 1024" version="1.1" xmlns="http://www.w3.org/2000/svg" p-id="7886" width="200" height="200"><path d="M803.964608 1019.385912c-22.955828 0-44.484144-8.886391-60.619636-25.019837s-25.021883-37.662785-25.021883-60.618613l0-54.942333L327.277882 878.80513l0 54.942333c0 22.956851-8.886391 44.485167-25.021883 60.618613s-37.663808 25.019837-60.619636 25.019837-44.484144-8.886391-60.619636-25.019837c-16.134469-16.134469-25.02086-37.662785-25.02086-60.618613l0-54.942333L85.703941 878.80513l0-346.471013c0-46.035476 3.823072-80.146365 14.105253-125.856429l56.397475-248.577448c6.092765-47.732118 47.245024-87.467097 119.079072-114.946962 64.632019-24.724101 152.534022-38.340213 247.515257-38.340213 94.980211 0 182.88426 13.616112 247.515257 38.340213 71.820746 27.474748 112.969934 67.193355 119.074979 114.914216l57.484226 248.609171c9.492188 42.201148 13.022595 76.312036 13.022595 125.856429l0 346.471013L889.605104 878.804107l0 54.942333c0 22.956851-8.886391 44.485167-25.02086 60.618613C848.449775 1010.500545 826.921459 1019.385912 803.964608 1019.385912zM296.578696 848.104921l452.443579 0 0 85.641519c0 30.293957 24.647353 54.939263 54.942333 54.939263 30.293957 0 54.940286-24.64633 54.940286-54.939263l0-85.641519 70.291926 0 0-315.771827c0-47.642067-3.209088-78.806857-12.262278-119.066793l-42.281989-182.863794c0.066515 0.308015 0.130983 0.61603 0.192382 0.925069l0.031722 0.166799 46.044686 245.502413c2.926656 16.714683-1.587148 33.672914-12.385075 46.52564-10.676154 12.706393-26.337855 19.995403-42.971697 19.995403L187.06856 543.517831c-16.633842 0-32.29759-7.287987-42.97272-19.996426-10.796904-12.853749-15.309684-29.811979-12.380982-46.52564l0.032746-0.180102 46.041616-245.48604c5.257747-26.424836 28.509311-45.603641 55.288211-45.603641l586.478272 0c25.925463 0 48.544623 17.975397 54.731532 43.09961l-15.176654-65.635883-0.099261-0.831948c-2.096754-17.643845-11.56336-34.319643-28.137851-49.564859-17.049305-15.681144-41.114396-29.531594-71.527057-41.165562-61.2152-23.417339-145.222499-36.314067-236.546438-36.314067-91.323938 0-175.331237 12.896728-236.547461 36.314067-30.41266 11.633968-54.477752 25.484418-71.527057 41.165562-16.573467 15.244192-26.041096 31.91999-28.137851 49.564859l-0.095167 0.800225-0.178055 0.784876-56.561204 249.300926c-9.730619 43.2572-13.350053 75.54251-13.350053 119.091352l0 315.771827 70.291926 0 0 85.641519c0 30.293957 24.64633 54.939263 54.940286 54.939263 30.29498 0 54.942333-24.64633 54.942333-54.939263L296.577672 848.104921zM161.938206 482.377332c-1.329275 7.731078 0.732687 15.525602 5.664 21.396309 4.898567 5.831822 11.811 9.042957 19.465331 9.042957l678.497035 0c7.653307 0 14.566764-3.211135 19.465331-9.041934 4.932336-5.871731 6.995321-13.667278 5.666046-21.400403l-45.976124-245.127883c-2.437515-12.069897-13.009292-20.824281-25.166169-20.824281L233.07743 216.422098c-12.155854 0-22.726607 8.752338-25.165146 20.821211L161.938206 482.377332zM824.677349 810.454416c-26.037003 0-50.453089-10.076496-68.750827-28.374234-18.296715-18.296715-28.374234-42.711777-28.374234-68.749804s10.076496-50.454112 28.374234-68.750827c18.296715-18.296715 42.712801-28.374234 68.750827-28.374234s50.453089 10.077519 68.74878 28.374234c18.296715 18.297738 28.373211 42.712801 28.373211 68.750827s-10.076496 50.453089-28.373211 68.749804C875.129414 800.378943 850.714352 810.454416 824.677349 810.454416zM824.677349 646.906549c-36.627199 0-66.424852 29.797653-66.424852 66.424852 0 36.626175 29.797653 66.423829 66.424852 66.423829 36.625152 0 66.421782-29.797653 66.421782-66.423829C891.100154 676.704203 861.302501 646.906549 824.677349 646.906549zM227.959875 810.454416c-26.037003 0-50.453089-10.076496-68.749804-28.374234-18.296715-18.296715-28.374234-42.711777-28.374234-68.749804s10.076496-50.454112 28.374234-68.750827 42.712801-28.374234 68.749804-28.374234c26.037003 0 50.453089 10.077519 68.749804 28.374234 18.296715 18.296715 28.374234 42.712801 28.374234 68.750827s-10.076496 50.453089-28.374234 68.749804C278.411941 800.378943 253.995855 810.454416 227.959875 810.454416zM227.959875 646.906549c-36.626175 0-66.424852 29.797653-66.424852 66.424852 0 36.626175 29.797653 66.423829 66.424852 66.423829s66.424852-29.797653 66.424852-66.423829C294.383704 676.704203 264.586051 646.906549 227.959875 646.906549zM730.751143 180.416046 321.883011 180.416046c-25.359574 0-45.99045-20.6319-45.99045-45.991474 0-25.359574 20.6319-45.99045 45.99045-45.99045l408.868131 0c25.789363 0 45.99045 20.201088 45.99045 45.99045S756.540506 180.416046 730.751143 180.416046zM321.883011 119.133308c-8.432043 0-15.291265 6.860245-15.291265 15.291265 0 8.432043 6.860245 15.292288 15.291265 15.292288l408.868131 0c8.718569 0 15.291265-6.573719 15.291265-15.292288 0-8.717546-6.573719-15.291265-15.291265-15.291265L321.883011 119.133308z" fill="#3E3A39" p-id="7887"></path></svg>