<svg t="1770026232316" class="icon" viewBox="0 0 1024 1024" version="1.1" xmlns="http://www.w3.org/2000/svg" p-id="15825" width="200" height="200"><path d="M880.294 987.418l-724.667 0c-59.286 0-107.356-48.02-107.356-107.364l0-670.93c0-59.341 48.071-107.407 107.356-107.407l107.362 0 0-13.421c0-22.223 18.032-40.261 40.257-40.261 22.253 0 40.261 18.038 40.261 40.261l0 13.421 348.912 0 0-13.421c0-22.223 18.038-40.261 40.261-40.261 22.221 0 40.257 18.038 40.257 40.261l0 13.421 107.356 0c59.291 0 107.362 48.065 107.362 107.407l0 670.93c-0.001 59.344-48.071 107.364-107.362 107.364l0 0zM907.138 235.907c0-29.631-24.05-53.674-53.68-53.674l-80.521 0 0 13.419c0 22.225-18.036 40.257-40.257 40.257-22.223 0-40.261-18.032-40.261-40.257l0-13.419-348.912 0 0 13.419c0 22.225-18.007 40.257-40.261 40.257-22.225 0-40.257-18.032-40.257-40.257l0-13.419-80.521 0c-29.629 0-53.68 24.043-53.68 53.674l0 617.311c0 29.66 24.05 53.682 53.68 53.682l670.991 0c29.629 0 53.68-24.023 53.68-53.682l0-617.311-0.001 0zM516.38 736.897c-0.029 0-0.029 0.055-0.051 0.055-15.729 15.729-41.201 15.729-56.93 0l-150.486-150.49c-15.705-15.678-15.705-41.203 0.022-56.932 15.7-15.721 41.201-15.721 56.93 0l122.013 122.044 209.021-209.052c15.731-15.729 41.231-15.729 56.959 0 15.7 15.729 15.7 41.197 0 56.921l-237.481 237.452zM516.38 736.897z" fill="#39d518" p-ird="15826"></path></svg>