<svg t="1770025952774" class="icon" viewBox="0 0 1024 1024" version="1.1" xmlns="http://www.w3.org/2000/svg" p-id="8903" width="200" height="200"><path d="M192.512 1010.176c-48.128 0-80.896-27.136-80.896-68.096V75.264c4.096-37.376 35.84-61.44 80.896-61.44h637.952c45.056 0 81.408 27.648 81.408 61.44v873.984c0 33.792-36.352 61.44-81.408 61.44H192.512z m638.464-27.648c25.088 0 45.568-15.36 45.568-33.792V75.264c0-18.432-20.48-33.792-45.568-33.792H209.92l390.144 66.56c43.008 7.168 75.776 37.888 75.776 71.168v665.6c0 33.28-32.256 64-75.776 71.168l-390.144 66.56h621.056zM154.112 60.416c-3.584 4.608-6.656 9.728-6.656 14.848v873.984c0 2.048 0.512 3.584 1.024 5.12 1.024 3.072 3.072 6.144 5.632 9.728l438.784-74.752c25.088-4.608 47.104-25.088 47.104-44.032V179.2c0-18.944-22.016-39.424-47.104-44.032L154.112 60.416z m368.64 495.104c-31.744 0-57.344-19.456-57.344-43.52s25.6-43.52 57.344-43.52c31.232 0 56.832 19.456 56.832 43.52s-25.088 43.52-56.832 43.52z m0-59.392c-11.776 0-20.992 7.168-20.992 15.872 0 8.704 9.216 15.36 20.992 15.36 12.288 0 21.504-6.656 21.504-15.36 0-9.216-9.216-15.872-21.504-15.872z" fill="#111E21" p-id="8904"></path><path d="M153.088 60.416c-3.072 4.608-5.632 9.728-5.632 14.848v873.984c0 2.048 0.512 3.584 1.024 5.12 1.024 3.072 2.56 6.144 5.12 9.728l385.536-74.752c22.016-4.608 40.96-25.088 40.96-44.032V179.2c0-18.944-19.456-39.424-40.96-44.032L153.088 60.416z" fill="#C8C8C8" p-id="8905"></path><path d="M522.752 555.52c-31.744 0-57.344-19.456-57.344-43.52s25.6-43.52 57.344-43.52c31.232 0 56.832 19.456 56.832 43.52s-25.088 43.52-56.832 43.52z" fill="#111E21" p-id="8906"></path><path d="M522.752 496.128c-11.776 0-20.992 7.168-20.992 15.872 0 8.704 9.216 15.36 20.992 15.36 12.288 0 21.504-6.656 21.504-15.36 0-9.216-9.216-15.872-21.504-15.872z" fill="#111E21" p-id="8907"></path></svg>