<svg t="1769781500494" class="icon" viewBox="0 0 1024 1024" version="1.1" xmlns="http://www.w3.org/2000/svg" p-id="5978" width="200" height="200"><path d="M955.594 154.384l-0.276 0.854-0.623 1.818-0.636 1.813-0.813 2.274-0.679 1.87-0.888 2.415-0.936 2.508-0.983 2.6-1.03 2.69-1.08 2.78-0.744 1.903-1.158 2.928-1.207 3.015-1.173 2.903-1.197 2.93c-0.402 0.98-0.809 1.967-1.22 2.957l-1.242 2.984-0.63 1.502-1.279 3.024-1.301 3.05-1.325 3.076-1.348 3.102-1.372 3.127c-0.23 0.523-0.462 1.047-0.695 1.572l-1.407 3.165-1.43 3.189-0.725 1.603-1.466 3.225-0.742 1.622-1.502 3.26-0.76 1.64-1.538 3.295a1122.81 1122.81 0 0 1-1.562 3.318l-1.585 3.341-1.61 3.363c-0.27 0.563-0.542 1.126-0.814 1.69l-1.646 3.396c-0.276 0.568-0.553 1.137-0.832 1.706l-1.682 3.429c-0.282 0.573-0.565 1.147-0.85 1.722-20.704 41.858-44.409 83.71-71.262 124.719 30.35 52.028 47.734 112.544 47.734 177.12 0 174-126.218 318.521-292.098 347.019l-0.003-0.01a31.865 31.865 0 0 1-20.532 4.95 32.128 32.128 0 0 1-6.605-1.368A353.436 353.436 0 0 1 535.93 911c-90.248 0-172.567-33.945-234.883-89.763-1.212 0.447-2.426 0.893-3.635 1.332-48.03 17.451-90.04 24.977-125.296 21.49-40.71-4.028-72.532-22.95-91.016-56.226-13.734-24.725-17.136-52.757-11.522-82.2 4.712-24.713 15.689-50.072 31.7-75.271 21.44-33.747 51.844-66.638 82.55-91a31.79 31.79 0 0 1 1.255-10.886c15.41-180.236 166.605-321.712 350.847-321.712 105.18 0 199.589 46.107 264.116 119.21 20.03-32.127 38.078-64.72 54.196-97.306a1065.471 1065.471 0 0 0 16.105-34.031l0.999-2.222-49.701 13.246c-16.907 4.506-34.26-5.401-39.021-22.17l-0.14-0.51c-4.506-16.906 5.4-34.26 22.17-39.02l0.51-0.141 111.596-29.74c24.364-6.494 46.206 16.399 38.834 40.304z m-156.691 286.54l-0.84 1.115a1111.974 1111.974 0 0 1-28.496 36.358C724.51 533.481 674.664 583.332 619.8 626.674c-90.746 71.69-176.988 128.228-252.691 165.718C414.548 826.75 472.874 847 535.93 847c5.35 0 10.666-0.146 15.945-0.434 0.682-3.07 1.429-6.21 2.239-9.422 7.08-28.055 17.59-56.138 32.333-82.602 15.098-27.1 33.853-50.97 56.718-70.568 14.72-12.617 30.692-23.504 47.702-32.777 31.37-17.103 64.7-28.005 97.986-34.054 10.782-1.96 20.888-3.276 30.13-4.069 3.349-17.55 5.097-35.666 5.097-54.192 0-42.028-9-81.954-25.177-117.957z m-1.775 239.788l-0.947 0.178c-25.6 5.033-51.067 13.626-74.68 26.499-13.182 7.186-25.457 15.553-36.686 25.178-16.77 14.374-30.866 32.315-42.46 53.123-8.582 15.407-15.469 31.756-20.817 48.374 77.832-24.174 141.523-80.455 175.59-153.352z m-607.834-59.415l-0.332 0.357c-12.638 13.55-24.294 28.28-33.666 43.03-24.139 37.991-30.31 70.357-18.248 92.07 7.726 13.91 20.592 21.56 41.369 23.615 17.79 1.76 40.173-0.914 66.438-8.109l2.167-0.601c0.363-0.102 0.727-0.205 1.09-0.309l2.194-0.632c1.168-0.34 2.343-0.69 3.525-1.048-32.145-42.929-54.71-93.444-64.537-148.373zM535.93 270.764c-5.684 0-11.328 0.165-16.93 0.49a160.95 160.95 0 0 1 7.344 8.045c19.638 23.07 29.89 49.393 27.8 78.009-0.962 13.16-4.652 24.876-10.779 35.547-3.796 6.612-7.728 11.784-13.434 18.178l-1.165 1.296-1.215 1.334-4.404 4.765-1.083 1.193-0.495 0.554-0.688 0.78-0.818 0.95-0.545 0.65-0.487 0.6-0.434 0.551-0.384 0.508-0.336 0.467-0.292 0.43-0.171 0.267-0.154 0.252-0.137 0.24-0.122 0.226-0.106 0.215-0.062 0.133 0.056 0.419 0.07 0.46 0.109 0.625 0.11 0.567 0.174 0.83 0.274 1.228 1.52 6.446 0.467 2.036 0.145 0.65 0.275 1.262 0.255 1.218c0.082 0.4 0.16 0.792 0.236 1.18l0.219 1.148c0.07 0.379 0.137 0.753 0.201 1.125l0.185 1.107 0.17 1.098c0.135 0.912 0.254 1.82 0.361 2.744l0.122 1.117 0.11 1.137c0.035 0.383 0.068 0.771 0.1 1.165 0.744 9.357-0.105 18.497-2.987 27.682-6.247 19.903-21.16 37.181-45.439 53.369-6.55 4.367-14.024 8.746-22.197 13.01l-2.058 1.063c-25.552 13.086-57.562 24.978-89.397 31.957-39.12 8.576-76.714 9.897-111.096 2.365 5.199 61.617 29.795 117.71 67.66 162.157 75.817-34.44 166.723-92.585 263.647-169.154 51.082-40.354 97.668-86.945 139.904-138.579a1055.473 1055.473 0 0 0 43-56.354c-52.74-67.422-134.858-110.758-227.1-110.758zM435.93 288.59l-3.824 1.443c-95.537 36.91-166.469 123.265-181.409 227.682 27.284 8.7 59.879 8.669 95.51 0.857 8.813-1.932 17.669-4.335 26.318-7.068l2.072-0.662a331.928 331.928 0 0 0 5.14-1.708l2.038-0.703c1.017-0.354 2.029-0.713 3.036-1.075l2.008-0.729a332.208 332.208 0 0 0 4.96-1.864l1.96-0.76 1.942-0.77 1.925-0.777c0.64-0.26 1.275-0.521 1.909-0.784l1.89-0.79c1.567-0.662 3.114-1.33 4.64-2.004l1.819-0.812 1.798-0.816c1.49-0.682 2.955-1.369 4.395-2.059l1.717-0.83 0.848-0.416 1.678-0.834c0.833-0.417 1.655-0.836 2.468-1.255l1.61-0.839c1.065-0.56 2.11-1.12 3.136-1.68l1.524-0.842c0.503-0.28 1-0.56 1.493-0.84l1.462-0.841a154.627 154.627 0 0 0 8.07-5.008c7.476-4.984 12.76-9.484 16.16-13.422 2.19-2.54 3.26-4.405 3.718-5.861l0.092-0.322 0.054-0.22 0.046-0.23 0.04-0.236 0.033-0.246 0.025-0.257 0.017-0.27 0.006-0.14 0.006-0.292v-0.151l-0.008-0.316-0.016-0.334-0.025-0.353-0.034-0.375-0.07-0.603-0.058-0.432-0.069-0.458-0.122-0.738-0.095-0.528-0.162-0.85-0.189-0.923-0.215-1.001-0.328-1.464-0.38-1.623-0.781-3.284-0.557-2.393-0.24-1.058-0.283-1.296-0.19-0.904-0.225-1.138-0.153-0.822-0.187-1.078c-0.06-0.36-0.117-0.72-0.172-1.087l-0.164-1.127-0.161-1.198c-1.015-7.816-0.836-15.275 1.053-22.914 2.042-8.256 5.504-15.677 10.22-22.684a92.08 92.08 0 0 1 1.85-2.65l0.759-1.03a97.474 97.474 0 0 1 2.8-3.568l0.86-1.032c0.436-0.52 0.886-1.045 1.35-1.58l0.947-1.082 0.49-0.552 1.013-1.129 1.06-1.166 4.479-4.847 0.728-0.798 0.692-0.767 0.658-0.74 0.625-0.713 0.591-0.688 0.284-0.335 0.544-0.653 0.514-0.632 0.484-0.613 0.455-0.595c0.22-0.293 0.431-0.58 0.631-0.861l0.387-0.557c0.187-0.275 0.365-0.545 0.533-0.811l0.324-0.528 0.301-0.519 0.278-0.512c1.024-1.95 1.568-3.778 1.853-5.874l0.069-0.553 0.058-0.567 0.047-0.582c1.511-20.68-17.551-43.27-54.383-64.054z" p-id.sv="5979"></path></svg>