<svg t="1769781585373" class="icon" viewBox="0 0 1024 1024" version="1.1" xmlns="http://www.w3.org/2000/svg" p-id="8901" width="200" height="200"><path d="M512.819668 268.931009c120.710222 0.182149 218.365356 97.879238 218.567971 218.669278-0.121773 66.067718-26.249851 125.037784-61.033052 174.865633C722.711026 634.904191 788.760324 577.086367 788.819676 487.600287c-0.060375-152.479787-123.621529-276.000008-276.000008-276.020474l-0.829901 0c-152.399969 0.020466-275.959076 123.540687-276.001031 276.020474 0.040932 89.48608 66.067718 147.302881 118.465089 174.865633-34.80469-49.827849-60.95221-108.798938-61.051471-174.865633 0.200568-120.791064 97.877191-218.48713 218.587414-218.669278L512.819668 268.931009zM512.031722 63.791885c-234.120179 0-423.728584 189.709713-423.791006 423.707095 0 62.772672 13.691837 122.428354 38.181601 176.018899C175.562505 770.941494 268.285303 836.220243 381.957225 865.86747l-7.703449-15.95539c-86.817298-42.549072-157.031453-125.928061-195.758476-210.943316-21.051455-46.12962-32.739659-97.413634-32.840966-151.469783 0.301875-202.349591 164.048263-365.952716 366.377388-366.355899 202.287169 0.404206 365.970112 164.006308 366.313943 366.355899-0.26299 150.822031-91.304496 298.529117-221.418902 361.624131l-6.612605 17.371646C816.402895 815.47271 935.737794 673.062256 935.759283 487.49898 935.717328 253.501598 746.04957 63.791885 512.031722 63.791885z" fill="#AAAAAA" p-id="8902"></path><path d="M634.824373 616.359836c12.153808 149.728116-70.478168 333.817832-70.478168 333.817832s-20.971637 10.031471-52.072983 10.031471c-31.041994 0-52.559053-10.031471-52.559053-10.031471s-82.691327-184.088692-70.536496-333.817832c0 0 19.495006-62.975287 123.803677-62.975287C617.270579 553.384549 634.824373 616.359836 634.824373 616.359836z" fill="#AAAAAA" p-id="8903"></path><path d="M605.297896 428.994518c0 51.52756-41.780569 93.309152-93.308129 93.309152-51.486628 0-93.26822-41.780569-93.26822-93.309152 0-51.507094 41.780569-93.287663 93.26822-93.287663C563.517327 335.705831 605.297896 377.487424 605.297896 428.994518z" fill="#AAAAAA" p-id="8904"></path></svg>