<svg t="1770026377146" class="icon" viewBox="0 0 1024 1024" version="1.1" xmlns="http://www.w3.org/2000/svg" p-id="19143" width="200" height="200"><path d="M435.2 464H336a16 16 0 0 1 0-32h43.04a209.6 209.6 0 0 1-64.96-96H140A46.24 46.24 0 0 0 96 384a52.96 52.96 0 0 0 0.96 9.76 36.16 36.16 0 0 0 1.28 4.8 14.4 14.4 0 0 0 1.28 3.68l0.96 2.24A43.84 43.84 0 0 0 140 432H192a16 16 0 0 1 0 32H140a74.56 74.56 0 0 1-54.08-23.68 77.44 77.44 0 0 1-14.88-23.36 59.2 59.2 0 0 1-3.68-9.6L65.6 400a83.68 83.68 0 0 1-1.6-16 78.08 78.08 0 0 1 76-80h186.08a16 16 0 0 1 16 12 177.28 177.28 0 0 0 82.4 108.64 172.32 172.32 0 0 0 17.28 8.64A16 16 0 0 1 435.2 464z" p-id="19144" fill="#39d518"></path><path d="M272 464h-16a16 16 0 0 1 0-32h16a16 16 0 0 1 0 32zM800 464H588.96a16 16 0 0 1-6.4-30.72 176 176 0 0 0 99.84-117.28 16 16 0 0 1 16-12H752a64 64 0 0 1 64 64v80a16 16 0 0 1-16 16z m-155.04-32H784v-64a32 32 0 0 0-32-32h-42.08a209.12 209.12 0 0 1-64.96 96zM864 768h-44.32a85.28 85.28 0 0 1-61.76-26.56A76.96 76.96 0 0 1 736 684.16 80 80 0 0 1 816 608h40a40.16 40.16 0 0 0 40-40 16 16 0 0 1 32 0V704a64 64 0 0 1-64 64z m-48-128a48 48 0 0 0-48 45.76 44.96 44.96 0 0 0 13.12 33.6 53.6 53.6 0 0 0 38.56 16H864a32 32 0 0 0 32-32v-75.52a71.36 71.36 0 0 1-40 12.16zM304 960H128a64 64 0 0 1-64-64V384a16 16 0 0 1 32 0 52.96 52.96 0 0 0 0.96 9.76 36.16 36.16 0 0 0 1.28 4.8 44.96 44.96 0 0 0 2.08 5.28A48 48 0 0 0 144 432h48a16 16 0 0 1 0 32H144a80 80 0 0 1-48-16v448a32 32 0 0 0 32 32h176a16 16 0 0 1 0 32z" p-id="19145" fill="#39d518"></path><path d="M848 816a16 16 0 0 1-16-16v-32h-12.32a85.28 85.28 0 0 1-61.76-26.56A76.96 76.96 0 0 1 736 684.16 80 80 0 0 1 816 608h16v-112a32 32 0 0 0-32-32H336a16 16 0 0 1 0-32h464a64 64 0 0 1 64 64v128a16 16 0 0 1-16 16h-32a48 48 0 0 0-48 45.76 44.96 44.96 0 0 0 13.12 33.6 53.6 53.6 0 0 0 38.56 16H848a16 16 0 0 1 16 16v48A16 16 0 0 1 848 816zM800 960H368a16 16 0 0 1 0-32h432a32 32 0 0 0 32-32v-32a16 16 0 0 1 32 0v32a64 64 0 0 1-64 64zM272 464h-16a16 16 0 0 1 0-32h16a16 16 0 0 1 0 32z" p-id="19146" fill="#39d518"></path><path d="M856 640H848a16 16 0 0 1-16-16v-112a16 16 0 0 1 16-16h8a72.16 72.16 0 0 1 72 72 72.32 72.32 0 0 1-72 72z m8-112v80a40 40 0 0 0 0-78.4zM588.96 464H435.2a16 16 0 0 1-6.08-1.28 168 168 0 0 1-20.96-10.4 208 208 0 0 1-32-338.4 16 16 0 1 1 20.8 24.32 176 176 0 0 0 26.24 286.4c5.6 3.04 10.24 5.44 14.56 7.36h147.84A176 176 0 0 0 512 96a174.56 174.56 0 0 0-64 12.16 16 16 0 1 1-11.84-29.76A204.32 204.32 0 0 1 512 64a208 208 0 0 1 83.36 398.72 17.6 17.6 0 0 1-6.4 1.28z" p-id="19147" fill="#39d518"></path><path d="M528 288h-64a16 16 0 0 1-16-16v-64a16 16 0 0 1 16-16h64a48 48 0 0 1 0 96z m-48-32h48a16 16 0 0 0 0-32h-48z" p-id="19148" fill="#39d518"></path><path d="M544 352h-80a16 16 0 0 1-16-16v-64a16 16 0 0 1 16-16h80a48 48 0 0 1 0 96z m-64-32h64a16 16 0 0 0 0-32h-64z" p-id="19149" fill="#39d518"></path><path d="M464 352h-16a16 16 0 0 1 0-32v-96a16 16 0 0 1 0-32h16a16 16 0 0 1 16 16v128a16 16 0 0 1-16 16z" p-id="19150" fill="#39d518"></path><path d="M528 224h-48a16 16 0 0 1-16-16v-32a16 16 0 0 1 32 0v16h16v-16a16 16 0 0 1 32 0v32a16 16 0 0 1-16 16zM528 384a16 16 0 0 1-16-16v-16h-16v16a16 16 0 0 1-32 0v-32a16 16 0 0 1 16-16h48a16 16 0 0 1 16 16v32a16 16 0 0 1-16 16z" p-id="19151" fill="#39d518"></path></svg>